<?xml version="1.0" encoding="UTF-8" standalone="no"?><!DOCTYPE svg PUBLIC "-//W3C//DTD SVG 1.1//EN" "http://www.w3.org/Graphics/SVG/1.1/DTD/svg11.dtd"><svg width="100%" height="100%" viewBox="0 0 1280 1280" version="1.1" xmlns="http://www.w3.org/2000/svg" xmlns:xlink="http://www.w3.org/1999/xlink" xml:space="preserve" xmlns:serif="http://www.serif.com/" style="fill-rule:evenodd;clip-rule:evenodd;stroke-linecap:square;stroke-miterlimit:1.5;"><g id="Artboard1"><path d="M1280,185.686c0,-49.247 -19.563,-96.477 -54.386,-131.3c-34.823,-34.823 -82.053,-54.386 -131.3,-54.386l-908.628,0c-49.247,-0 -96.477,19.563 -131.3,54.386c-34.823,34.823 -54.386,82.053 -54.386,131.3l-0,908.628c-0,49.247 19.563,96.477 54.386,131.3c34.823,34.823 82.053,54.386 131.3,54.386l908.628,0c49.247,0 96.477,-19.563 131.3,-54.386c34.823,-34.823 54.386,-82.053 54.386,-131.3l0,-908.628Z" style="fill:none;"/><clipPath id="_clip1"><path d="M1280,185.686c0,-49.247 -19.563,-96.477 -54.386,-131.3c-34.823,-34.823 -82.053,-54.386 -131.3,-54.386l-908.628,0c-49.247,-0 -96.477,19.563 -131.3,54.386c-34.823,34.823 -54.386,82.053 -54.386,131.3l-0,908.628c-0,49.247 19.563,96.477 54.386,131.3c34.823,34.823 82.053,54.386 131.3,54.386l908.628,0c49.247,0 96.477,-19.563 131.3,-54.386c34.823,-34.823 54.386,-82.053 54.386,-131.3l0,-908.628Z"/></clipPath><g clip-path="url(#_clip1)"><rect x="0" y="-0" width="1280" height="1280" style="fill:#fff;"/><g><path d="M640,254.221c-213.06,-0 -385.779,172.719 -385.779,385.779c-0,212.917 172.862,385.779 385.779,385.779c213.06,0 385.779,-172.719 385.779,-385.779l-385.779,-0l0,-385.779Z" style="fill:none;stroke:#000;stroke-width:100px;"/><path d="M829.675,647.898l-0,306.135" style="fill:none;stroke:#000;stroke-width:100px;"/><path d="M270.977,640l369.023,0" style="fill:none;stroke:#000;stroke-width:100px;"/></g></g></g></svg>